<svg width="33" height="27" viewBox="0 0 33 27" fill="none" xmlns="http://www.w3.org/2000/svg">
<path fill-rule="evenodd" clip-rule="evenodd" d="M10.9377 20.0783C10.8823 21.9713 11.979 22.3665 11.979 22.3665C12.3129 22.6479 12.711 22.8477 13.1398 22.9454C14.6083 27.4765 28.7163 27.2242 30.109 22.9454C32.5794 22.4685 32.3008 19.5913 31.5644 17.3804C30.529 14.5717 28.2263 11.636 25.4015 10.5904C26.0742 10.0294 26.6154 9.32738 26.9868 8.53408C27.3583 7.74077 27.5509 6.87554 27.551 5.99958C27.551 2.68625 24.8458 0 21.5092 0C18.1725 0 15.4673 2.68625 15.4673 5.99958C15.4673 7.83708 16.2985 9.48354 17.611 10.5846C13.9885 12.0794 11.3635 16.1963 10.9377 20.0783ZM8.75167 20.0127C8.75361 19.9544 8.7575 19.897 8.76334 19.8406C9.11771 16.6075 10.7642 13.179 13.3177 10.8092C12.6235 10.131 11.8302 9.58417 10.9713 9.26625C11.4826 8.84145 11.8939 8.30912 12.176 7.70718C12.458 7.10524 12.6039 6.4485 12.6031 5.78375C12.6031 3.27104 10.5513 1.23375 8.01959 1.23375C5.48792 1.23375 3.43604 3.27104 3.43604 5.78375C3.43604 7.17792 4.0675 8.42625 5.06209 9.26188C2.31459 10.395 0.322502 13.5202 0.00166831 16.4631C-0.0420817 17.8996 0.789168 18.1985 0.789168 18.1985C1.04292 18.4129 1.34479 18.5631 1.67 18.639C2.27083 20.491 5.65563 21.2902 8.81583 21.124C8.75907 20.7564 8.73759 20.3843 8.75167 20.0127Z" fill="#585555"/>
</svg>
