<svg width="33" height="39" viewBox="0 0 33 39" fill="none" xmlns="http://www.w3.org/2000/svg">
<path d="M25.875 16.675C25.875 17.218 25.8271 17.7611 25.7312 18.3042C25.6354 18.8472 25.4757 19.3743 25.2521 19.8854C25.0285 20.4285 24.6611 20.8118 24.15 21.0354C23.6389 21.259 23.1278 21.243 22.6167 20.9875C22.1375 20.7639 21.8021 20.3965 21.6104 19.8854C21.4187 19.3743 21.4507 18.8951 21.7062 18.4479C21.866 18.1604 21.9618 17.8729 21.9937 17.5854C22.0257 17.2979 22.0417 16.9944 22.0417 16.675C22.0417 16.3555 22.018 16.0444 21.9707 15.7416C21.9235 15.4387 21.8353 15.1429 21.7062 14.8542C21.5146 14.4069 21.5146 13.9597 21.7062 13.5125C21.8979 13.0653 22.2174 12.7299 22.6646 12.5062C23.1437 12.2826 23.6312 12.275 24.127 12.4832C24.6228 12.6915 24.9978 13.0346 25.2521 13.5125C25.5076 14.0236 25.6757 14.543 25.7562 15.0707C25.8367 15.5985 25.8763 16.1332 25.875 16.675ZM32.5833 16.675C32.5833 18.2722 32.3437 19.8215 31.8646 21.3229C31.3854 22.8243 30.6667 24.2139 29.7083 25.4917C29.4208 25.875 29.0132 26.059 28.4855 26.0437C27.9578 26.0283 27.5188 25.8443 27.1687 25.4917C26.8186 25.139 26.627 24.7077 26.5937 24.1979C26.5605 23.6881 26.6883 23.2089 26.9771 22.7604C27.584 21.866 28.0312 20.8993 28.3187 19.8605C28.6062 18.8217 28.75 17.7598 28.75 16.675C28.75 15.5902 28.6062 14.5283 28.3187 13.4895C28.0312 12.4507 27.584 11.484 26.9771 10.5896C26.6896 10.1424 26.5618 9.66319 26.5937 9.15208C26.6257 8.64097 26.8174 8.20972 27.1687 7.85833C27.5201 7.50694 27.9597 7.32358 28.4874 7.30825C29.0151 7.29292 29.4221 7.47628 29.7083 7.85833C30.6667 9.13611 31.3854 10.5257 31.8646 12.0271C32.3437 13.5285 32.5833 15.0778 32.5833 16.675ZM15.3333 38.3333C14.2792 38.3333 13.3771 37.9583 12.627 37.2082C11.8769 36.4582 11.5013 35.5554 11.5 34.5H19.1667C19.1667 35.5541 18.7916 36.4569 18.0416 37.2082C17.2915 37.9596 16.3888 38.3346 15.3333 38.3333ZM1.91667 32.5833C1.37362 32.5833 0.918728 32.3993 0.552006 32.0313C0.185284 31.6633 0.00128439 31.2084 6.60918e-06 30.6666C-0.00127117 30.1249 0.182729 29.67 0.552006 29.302C0.921284 28.934 1.37617 28.75 1.91667 28.75H3.83334V15.3333C3.83334 12.6819 4.63195 10.3264 6.22917 8.26658C7.82639 6.20681 9.90278 4.85683 12.4583 4.21667V2.875C12.4583 2.07639 12.7382 1.39789 13.2978 0.839504C13.8575 0.281115 14.536 0.00128213 15.3333 4.35606e-06C16.1307 -0.00127342 16.8098 0.27856 17.3707 0.839504C17.9317 1.40045 18.2109 2.07895 18.2083 2.875V4.21667C18.6556 4.34445 19.0951 4.4882 19.527 4.64792C19.9589 4.80764 20.3818 4.99931 20.7958 5.22292C21.4028 5.57431 21.7305 6.08542 21.7791 6.75625C21.8276 7.42708 21.5957 8.01805 21.0833 8.52917L18.4 11.2604C18.0486 11.6118 17.7694 12.0194 17.5624 12.4832C17.3554 12.9471 17.2513 13.4339 17.25 13.9437V19.4062C17.25 19.9174 17.3458 20.4048 17.5375 20.8687C17.7292 21.3325 18.0007 21.7395 18.3521 22.0896L25.5875 29.325C26.1944 29.9319 26.3305 30.6264 25.9957 31.4084C25.661 32.1904 25.0617 32.582 24.1979 32.5833H1.91667Z" fill="#585555"/>
</svg>
