<svg width="34" height="32" viewBox="0 0 34 32" fill="none" xmlns="http://www.w3.org/2000/svg">
<path d="M26.6667 0C28.4348 0 30.1305 0.702379 31.3807 1.95262C32.631 3.20286 33.3333 4.89856 33.3333 6.66667V20C33.3333 21.7681 32.631 23.4638 31.3807 24.714C30.1305 25.9643 28.4348 26.6667 26.6667 26.6667H18.7933L10.8567 31.4283C10.6176 31.5718 10.3465 31.653 10.068 31.6645C9.78944 31.676 9.51248 31.6175 9.26243 31.4943C9.01238 31.3711 8.79722 31.1872 8.63665 30.9593C8.47609 30.7314 8.37524 30.4669 8.34333 30.19L8.33333 30V26.6667H6.66667C4.95626 26.6667 3.31129 26.0093 2.07198 24.8305C0.832674 23.6516 0.0938537 22.0416 0.00833352 20.3333L0 20V6.66667C0 4.89856 0.702379 3.20286 1.95262 1.95262C3.20286 0.702379 4.89856 0 6.66667 0H26.6667ZM20 15H10C9.55797 15 9.13405 15.1756 8.82149 15.4882C8.50893 15.8007 8.33333 16.2246 8.33333 16.6667C8.33333 17.1087 8.50893 17.5326 8.82149 17.8452C9.13405 18.1577 9.55797 18.3333 10 18.3333H20C20.442 18.3333 20.8659 18.1577 21.1785 17.8452C21.4911 17.5326 21.6667 17.1087 21.6667 16.6667C21.6667 16.2246 21.4911 15.8007 21.1785 15.4882C20.8659 15.1756 20.442 15 20 15ZM23.3333 8.33333H10C9.55797 8.33333 9.13405 8.50893 8.82149 8.82149C8.50893 9.13405 8.33333 9.55797 8.33333 10C8.33333 10.442 8.50893 10.866 8.82149 11.1785C9.13405 11.4911 9.55797 11.6667 10 11.6667H23.3333C23.7754 11.6667 24.1993 11.4911 24.5118 11.1785C24.8244 10.866 25 10.442 25 10C25 9.55797 24.8244 9.13405 24.5118 8.82149C24.1993 8.50893 23.7754 8.33333 23.3333 8.33333Z" fill="#585555"/>
</svg>
