<svg width="46" height="46" viewBox="0 0 46 46" fill="none" xmlns="http://www.w3.org/2000/svg">
<path d="M33.542 20.5082C33.542 21.0513 33.4941 21.5944 33.3982 22.1374C33.3024 22.6805 33.1427 23.2075 32.9191 23.7187C32.6955 24.2617 32.3281 24.645 31.817 24.8687C31.3059 25.0923 30.7948 25.0763 30.2837 24.8207C29.8045 24.5971 29.4691 24.2298 29.2774 23.7187C29.0857 23.2075 29.1177 22.7284 29.3732 22.2812C29.533 21.9937 29.6288 21.7062 29.6607 21.4187C29.6927 21.1312 29.7087 20.8277 29.7087 20.5082C29.7087 20.1888 29.685 19.8777 29.6377 19.5748C29.5905 19.272 29.5023 18.9762 29.3732 18.6874C29.1816 18.2402 29.1816 17.793 29.3732 17.3457C29.5649 16.8985 29.8843 16.5631 30.3316 16.3395C30.8107 16.1159 31.2982 16.1082 31.794 16.3165C32.2898 16.5248 32.6648 16.8679 32.9191 17.3457C33.1746 17.8569 33.3426 18.3763 33.4231 18.904C33.5036 19.4317 33.5433 19.9665 33.542 20.5082ZM40.2503 20.5082C40.2503 22.1055 40.0107 23.6548 39.5316 25.1562C39.0524 26.6575 38.3336 28.0471 37.3753 29.3249C37.0878 29.7082 36.6802 29.8922 36.1525 29.8769C35.6248 29.8616 35.1858 29.6776 34.8357 29.3249C34.4856 28.9722 34.294 28.541 34.2607 28.0312C34.2275 27.5213 34.3553 27.0422 34.6441 26.5937C35.251 25.6992 35.6982 24.7326 35.9857 23.6937C36.2732 22.6549 36.417 21.5931 36.417 20.5082C36.417 19.4234 36.2732 18.3616 35.9857 17.3227C35.6982 16.2839 35.251 15.3173 34.6441 14.4228C34.3566 13.9756 34.2288 13.4964 34.2607 12.9853C34.2927 12.4742 34.4843 12.043 34.8357 11.6916C35.1871 11.3402 35.6267 11.1568 36.1544 11.1415C36.6821 11.1262 37.0891 11.3095 37.3753 11.6916C38.3336 12.9694 39.0524 14.3589 39.5316 15.8603C40.0107 17.3617 40.2503 18.911 40.2503 20.5082ZM23.0003 42.1666C21.9462 42.1666 21.044 41.7915 20.294 41.0415C19.5439 40.2914 19.1683 39.3887 19.167 38.3332H26.8337C26.8337 39.3874 26.4586 40.2901 25.7086 41.0415C24.9585 41.7928 24.0558 42.1678 23.0003 42.1666ZM9.58366 36.4166C9.04061 36.4166 8.58572 36.2326 8.219 35.8646C7.85228 35.4966 7.66828 35.0417 7.667 34.4999C7.66572 33.9581 7.84972 33.5032 8.219 33.1352C8.58828 32.7672 9.04316 32.5832 9.58366 32.5832H11.5003V19.1666C11.5003 16.5152 12.2989 14.1596 13.8962 12.0998C15.4934 10.0401 17.5698 8.69009 20.1253 8.04992V6.70825C20.1253 5.90964 20.4052 5.23114 20.9648 4.67276C21.5245 4.11437 22.203 3.83453 23.0003 3.83326C23.7977 3.83198 24.4768 4.11181 25.0377 4.67276C25.5987 5.2337 25.8779 5.9122 25.8753 6.70825V8.04992C26.3225 8.1777 26.7621 8.32145 27.194 8.48117C27.6259 8.64089 28.0488 8.83256 28.4628 9.05617C29.0698 9.40756 29.3975 9.91867 29.4461 10.5895C29.4946 11.2603 29.2627 11.8513 28.7503 12.3624L26.067 15.0937C25.7156 15.4451 25.4364 15.8527 25.2294 16.3165C25.0224 16.7803 24.9183 17.2672 24.917 17.777V23.2395C24.917 23.7506 25.0128 24.2381 25.2045 24.7019C25.3962 25.1657 25.6677 25.5727 26.0191 25.9228L33.2545 33.1582C33.8614 33.7652 33.9975 34.4596 33.6627 35.2416C33.328 36.0236 32.7287 36.4153 31.8649 36.4166H9.58366Z" fill="#585555"/>
</svg>
