<svg width="35" height="35" viewBox="0 0 35 35" fill="none" xmlns="http://www.w3.org/2000/svg">
<path fill-rule="evenodd" clip-rule="evenodd" d="M12.3977 25.1826C12.3423 27.0755 13.4389 27.4707 13.4389 27.4707C13.7729 27.7522 14.171 27.952 14.5998 28.0497C16.0683 32.5807 30.1762 32.3284 31.5689 28.0497C34.0393 27.5728 33.7608 24.6955 33.0243 22.4847C31.9889 19.6759 29.6862 16.7403 26.8614 15.6947C27.5341 15.1336 28.0754 14.4316 28.4468 13.6383C28.8183 12.845 29.0109 11.9798 29.011 11.1038C29.011 7.7905 26.3058 5.10425 22.9691 5.10425C19.6325 5.10425 16.9273 7.7905 16.9273 11.1038C16.9273 12.9413 17.7585 14.5878 19.071 15.6888C15.4485 17.1836 12.8235 21.3005 12.3977 25.1826ZM10.2116 25.117C10.2136 25.0586 10.2175 25.0013 10.2233 24.9449C10.5777 21.7117 12.2241 18.2832 14.7777 15.9134C14.0835 15.2353 13.2902 14.6884 12.4312 14.3705C12.9425 13.9457 13.3539 13.4134 13.6359 12.8114C13.918 12.2095 14.0638 11.5527 14.0631 10.888C14.0631 8.37529 12.0112 6.338 9.47955 6.338C6.94788 6.338 4.896 8.37529 4.896 10.888C4.896 12.2822 5.52746 13.5305 6.52205 14.3661C3.77455 15.4992 1.78246 18.6245 1.46163 21.5674C1.41788 23.0038 2.24913 23.3028 2.24913 23.3028C2.50288 23.5172 2.80475 23.6674 3.12996 23.7432C3.7308 25.5953 7.11559 26.3945 10.2758 26.2282C10.219 25.8607 10.1975 25.4886 10.2116 25.117Z" fill="#585555"/>
</svg>
