<svg width="40" height="40" viewBox="0 0 40 40" fill="none" xmlns="http://www.w3.org/2000/svg">
<path d="M29.6667 8C31.4348 8 33.1305 8.70238 34.3807 9.95262C35.631 11.2029 36.3333 12.8986 36.3333 14.6667V28C36.3333 29.7681 35.631 31.4638 34.3807 32.714C33.1305 33.9643 31.4348 34.6667 29.6667 34.6667H21.7933L13.8567 39.4283C13.6176 39.5718 13.3465 39.653 13.068 39.6645C12.7894 39.676 12.5125 39.6175 12.2624 39.4943C12.0124 39.3711 11.7972 39.1872 11.6367 38.9593C11.4761 38.7314 11.3752 38.4669 11.3433 38.19L11.3333 38V34.6667H9.66667C7.95626 34.6667 6.31129 34.0093 5.07198 32.8305C3.83267 31.6516 3.09385 30.0416 3.00833 28.3333L3 28V14.6667C3 12.8986 3.70238 11.2029 4.95262 9.95262C6.20286 8.70238 7.89856 8 9.66667 8H29.6667ZM23 23H13C12.558 23 12.134 23.1756 11.8215 23.4882C11.5089 23.8007 11.3333 24.2246 11.3333 24.6667C11.3333 25.1087 11.5089 25.5326 11.8215 25.8452C12.134 26.1577 12.558 26.3333 13 26.3333H23C23.442 26.3333 23.8659 26.1577 24.1785 25.8452C24.4911 25.5326 24.6667 25.1087 24.6667 24.6667C24.6667 24.2246 24.4911 23.8007 24.1785 23.4882C23.8659 23.1756 23.442 23 23 23ZM26.3333 16.3333H13C12.558 16.3333 12.134 16.5089 11.8215 16.8215C11.5089 17.1341 11.3333 17.558 11.3333 18C11.3333 18.442 11.5089 18.866 11.8215 19.1785C12.134 19.4911 12.558 19.6667 13 19.6667H26.3333C26.7754 19.6667 27.1993 19.4911 27.5118 19.1785C27.8244 18.866 28 18.442 28 18C28 17.558 27.8244 17.1341 27.5118 16.8215C27.1993 16.5089 26.7754 16.3333 26.3333 16.3333Z" fill="#585555"/>
</svg>
